<svg width="17" height="18" viewBox="0 0 17 18" fill="none" xmlns="http://www.w3.org/2000/svg">
<path d="M8.09912 16.9999C6.98216 16.9999 6.07666 16.0945 6.07666 14.9775V3.02246C6.07666 1.90549 6.98216 1 8.09912 1C9.21611 1 10.1216 1.90549 10.1216 3.02246V5.49695L12.2646 4.25972C13.2319 3.70123 14.4688 4.03266 15.0273 4.99998C15.5858 5.96731 15.2544 7.20422 14.287 7.76271L12.1441 8.99997L14.287 10.2372C15.2544 10.7957 15.5858 12.0326 15.0273 13C14.4688 13.9673 13.2319 14.2987 12.2646 13.7402L10.1216 12.503V14.9775C10.1216 16.0945 9.21611 16.9999 8.09912 16.9999Z" fill="white"/>
<path d="M1.1712 12.9998C0.612711 12.0325 0.944143 10.7956 1.91147 10.2371L4.05445 8.99983L1.91147 7.76258C0.944144 7.20411 0.612713 5.96717 1.1712 4.99985C1.72969 4.03252 2.96661 3.70109 3.93394 4.25958L4.5151 4.59511C5.05741 4.90823 5.3915 5.48688 5.3915 6.11308V11.8866C5.3915 12.5128 5.05741 13.0915 4.5151 13.4046L3.93394 13.7401C2.96661 14.2986 1.72969 13.9671 1.1712 12.9998Z" fill="white"/>
</svg>
